<?xml version="1.0" encoding="utf-8"?>
<!-- Generator: Adobe Illustrator 16.2.1, SVG Export Plug-In . SVG Version: 6.00 Build 0)  -->
<!DOCTYPE svg PUBLIC "-//W3C//DTD SVG 1.1//EN" "http://www.w3.org/Graphics/SVG/1.1/DTD/svg11.dtd">
<svg version="1.1" id="Layer_1" xmlns="http://www.w3.org/2000/svg" xmlns:xlink="http://www.w3.org/1999/xlink" x="0px" y="0px"
	 width="20px" height="20px" viewBox="0 0 20 20" enable-background="new 0 0 20 20" xml:space="preserve">
<g>
	<g>
		<path fill-rule="evenodd" clip-rule="evenodd" fill="#FFFFFF" d="M2.328,17.486h3v-12h-3V17.486z M14.328,5.486
			c-2.568,0.043-3.832,1.915-4,2v-2h-3v12h3v-7c0-0.257,0.633-2.312,3-2c1.271,0.083,1.957,1.765,2,2v7l2.988,0.014V9.192
			C18.211,7.993,17.611,5.529,14.328,5.486z M3.828,1.486c-0.828,0-1.5,0.671-1.5,1.5s0.672,1.5,1.5,1.5s1.5-0.671,1.5-1.5
			S4.656,1.486,3.828,1.486z"/>
	</g>
</g>
</svg>
