<?xml version="1.0" encoding="utf-8"?>
<!-- Generator: Adobe Illustrator 16.0.4, SVG Export Plug-In . SVG Version: 6.00 Build 0)  -->
<!DOCTYPE svg PUBLIC "-//W3C//DTD SVG 1.1//EN" "http://www.w3.org/Graphics/SVG/1.1/DTD/svg11.dtd">
<svg version="1.1" id="Layer_1" xmlns="http://www.w3.org/2000/svg" xmlns:xlink="http://www.w3.org/1999/xlink" x="0px" y="0px"
	 width="1998.369px" height="1178.529px" viewBox="0 0 1998.369 1178.529" enable-background="new 0 0 1998.369 1178.529"
	 xml:space="preserve">
<g>
	<g>
		<g>
			<path fill="none" stroke="#666666" stroke-miterlimit="10" d="M1755.202,1062.684H241.568c-6.215,0-12.676-6.715-12.676-12.931
				V77.427c0-24.861,21.576-43.743,46.438-43.743h1446.111c24.86,0,44.451,18.882,44.451,43.743v972.326
				C1765.892,1055.969,1761.417,1062.684,1755.202,1062.684z"/>
			<path fill="none" stroke="#666666" stroke-miterlimit="10" d="M56.806,1098.684c10.593,10,45.627,22,101.32,22H1838.41
				c55.693,0,90.545-12,101.073-22H56.806z"/>
			<path fill="none" stroke="#666666" stroke-miterlimit="10" d="M1944.892,1096.433c0,1.243-1.008,2.251-2.251,2.251H52.143
				c-1.243,0-2.251-1.008-2.251-2.251v-31.499c0-1.243,1.008-2.25,2.251-2.25h1890.498c1.243,0,2.251,1.007,2.251,2.25V1096.433z"/>
			<path fill="none" stroke="#666666" stroke-miterlimit="10" d="M1110.45,1081.684H885.851c-10.964,0-19.959-8.036-19.959-19h264
				C1129.892,1073.647,1121.414,1081.684,1110.45,1081.684z"/>
			<rect x="277.892" y="97.684" fill="none" stroke="#666666" stroke-miterlimit="10" width="1440" height="900"/>
			<rect x="277.892" y="158.684" fill="#F2F2F2" width="1440" height="839"/>
			<rect x="277.892" y="158.684" fill="none" stroke="#666666" stroke-miterlimit="10" width="1440" height="839"/>
			<circle fill="none" stroke="#666666" stroke-miterlimit="10" cx="997.88" cy="65.778" r="7.5"/>
		</g>
		<g>
			<path fill="none" stroke="#666666" stroke-miterlimit="10" d="M1717.892,158.684h-1440v-32.5c0-3.314,3.186-5.5,6.5-5.5h1428
				c3.314,0,5.5,2.186,5.5,5.5V158.684z"/>
			<rect x="1693.892" y="133.684" fill="none" stroke="#666666" stroke-miterlimit="10" width="24" height="25"/>
			<line fill="none" stroke="#666666" stroke-miterlimit="10" x1="1705.892" y1="140.184" x2="1705.892" y2="151.184"/>
			<line fill="none" stroke="#666666" stroke-miterlimit="10" x1="1700.392" y1="145.684" x2="1711.392" y2="145.684"/>
			<ellipse fill="none" stroke="#666666" stroke-miterlimit="10" cx="297.755" cy="138.969" rx="6" ry="6.061"/>
			<ellipse fill="none" stroke="#666666" stroke-miterlimit="10" cx="317.755" cy="138.969" rx="6" ry="6.061"/>
			<ellipse fill="none" stroke="#666666" stroke-miterlimit="10" cx="337.755" cy="138.969" rx="6" ry="6.061"/>
			<path fill="none" stroke="#666666" stroke-miterlimit="10" d="M383.892,146.684c0,2.209-1.791,4-4,4h-19c-2.209,0-4-1.791-4-4
				v-14c0-2.209,1.791-4,4-4h19c2.209,0,4,1.791,4,4V146.684z"/>
			<polyline fill="none" stroke="#666666" stroke-miterlimit="10" points="372.339,133.418 366.545,139.212 372.044,144.71 			"/>
			<path fill="none" stroke="#666666" stroke-miterlimit="10" d="M410.892,146.684c0,2.209-1.791,4-4,4h-19c-2.209,0-4-1.791-4-4
				v-14c0-2.209,1.791-4,4-4h19c2.209,0,4,1.791,4,4V146.684z"/>
			<g opacity="0.5">
				<g>
					<polyline fill="none" stroke="#666666" stroke-miterlimit="10" points="395.546,144.71 401.339,138.917 395.841,133.418 					
						"/>
				</g>
			</g>
			<path fill="none" stroke="#666666" stroke-miterlimit="10" d="M455.892,146.684c0,2.209-1.791,4-4,4h-29c-2.209,0-4-1.791-4-4
				v-14c0-2.209,1.791-4,4-4h29c2.209,0,4,1.791,4,4V146.684z"/>
			<path fill="none" stroke="#666666" stroke-miterlimit="10" d="M443.892,144.684c0,0.552-0.448,1-1,1h-12c-0.552,0-1-0.448-1-1
				v-10c0-0.552,0.448-1,1-1h12c0.552,0,1,0.448,1,1V144.684z"/>
			<line fill="none" stroke="#666666" stroke-miterlimit="10" x1="434.892" y1="134.184" x2="434.892" y2="145.184"/>
			<line fill="none" stroke="#666666" stroke-miterlimit="10" x1="431.392" y1="135.684" x2="433.392" y2="135.684"/>
			<line fill="none" stroke="#666666" stroke-miterlimit="10" x1="431.392" y1="137.684" x2="433.392" y2="137.684"/>
			<line fill="none" stroke="#666666" stroke-miterlimit="10" x1="431.392" y1="139.684" x2="433.392" y2="139.684"/>
			<path fill="none" stroke="#666666" stroke-miterlimit="10" d="M1635.892,146.684c0,2.209-1.791,4-4,4h-29c-2.209,0-4-1.791-4-4
				v-14c0-2.209,1.791-4,4-4h29c2.209,0,4,1.791,4,4V146.684z"/>
			<polyline fill="none" stroke="#666666" stroke-miterlimit="10" points="1615.392,136.684 1611.892,136.684 1611.892,145.684 
				1621.892,145.684 1621.892,136.684 1618.392,136.684 			"/>
			<line fill="none" stroke="#666666" stroke-miterlimit="10" x1="1616.892" y1="141.184" x2="1616.892" y2="131.184"/>
			<polyline fill="none" stroke="#666666" stroke-miterlimit="10" points="1614.312,133.764 1616.884,130.684 1619.593,133.928 			
				"/>
			<path fill="none" stroke="#666666" stroke-miterlimit="10" d="M1680.892,146.684c0,2.209-1.791,4-4,4h-29c-2.209,0-4-1.791-4-4
				v-14c0-2.209,1.791-4,4-4h29c2.209,0,4,1.791,4,4V146.684z"/>
			<rect x="1656.892" y="136.684" fill="none" stroke="#666666" stroke-miterlimit="10" width="8" height="8"/>
			<polyline fill="none" stroke="#666666" stroke-miterlimit="10" points="1659.892,135.184 1659.892,133.684 1667.892,133.684 
				1667.892,141.684 1666.392,141.684 			"/>
			<polygon fill="#666666" points="1279.392,136.936 1279.392,132.174 1283.721,134.555 			"/>
			<path fill="none" stroke="#666666" stroke-width="1.25" stroke-miterlimit="10" d="M1281.096,134.338
				c-2.839,0-5.142,2.302-5.142,5.141c0,2.84,2.303,5.142,5.142,5.142s5.141-2.302,5.141-5.142"/>
			<path fill="none" stroke="#666666" stroke-miterlimit="10" d="M1293.892,146.684c0,2.209-1.791,4-4,4h-582c-2.209,0-4-1.791-4-4
				v-15c0-2.209,1.791-4,4-4h582c2.209,0,4,1.791,4,4V146.684z"/>
			<g>
				<text transform="matrix(1 0 0 1 979.4058 142.6235)" fill="#666666" font-family="'HelveticaNeue'" font-size="12.8">aiux.co</text>
			</g>
		</g>
		<g>
			<path fill-rule="evenodd" clip-rule="evenodd" fill="#6F6F6F" d="M307.989,101.912c0.534-0.667,0.899-1.574,0.797-2.495
				c-0.772,0.034-1.737,0.534-2.293,1.187c-0.492,0.574-0.931,1.518-0.817,2.403C306.542,103.071,307.433,102.569,307.989,101.912
				 M309.942,107.696c-0.019-1.967,1.61-2.924,1.685-2.968c-0.922-1.344-2.351-1.528-2.854-1.543
				c-1.2-0.126-2.364,0.719-2.977,0.719c-0.623,0-1.564-0.706-2.58-0.686c-1.305,0.02-2.526,0.776-3.196,1.951
				c-1.384,2.393-0.352,5.911,0.973,7.846c0.663,0.948,1.437,2.006,2.451,1.969c0.991-0.041,1.362-0.632,2.558-0.632
				c1.187,0,1.534,0.632,2.568,0.608c1.064-0.017,1.734-0.952,2.373-1.908c0.766-1.086,1.074-2.156,1.086-2.211
				C312.003,110.832,309.961,110.053,309.942,107.696"/>
			<rect x="277.892" y="97.684" fill="none" stroke="#666666" stroke-miterlimit="10" width="1440" height="23"/>
			<text transform="matrix(1 0 0 1 332.6938 113.3105)"><tspan x="0" y="0" fill="#666666" font-family="'HelveticaNeue'" font-size="14">Safari     File     Edit     </tspan><tspan x="140.543" y="0" fill="#666666" font-family="'HelveticaNeue'" font-size="14">V</tspan><tspan x="148.846" y="0" fill="#666666" font-family="'HelveticaNeue'" font-size="14">iew     History     Bookmarks     Window     Help</tspan></text>
			<text transform="matrix(1 0 0 1 1537.1279 113.3105)" fill="#666666" font-family="'HelveticaNeue'" font-size="14">    Fri  4:20 PM</text>
			<circle fill="none" stroke="#666666" stroke-width="1.25" stroke-miterlimit="10" cx="1652.812" cy="107.507" r="5.049"/>
			
				<line fill="none" stroke="#666666" stroke-width="1.25" stroke-miterlimit="10" x1="1655.822" y1="111.111" x2="1660.358" y2="115.646"/>
			<g opacity="0.5">
				<g>
					
						<line fill="none" stroke="#666666" stroke-width="2" stroke-miterlimit="10" x1="1680.392" y1="105.184" x2="1694.392" y2="105.184"/>
					
						<line fill="none" stroke="#666666" stroke-width="2" stroke-miterlimit="10" x1="1680.392" y1="109.184" x2="1690.392" y2="109.184"/>
					
						<line fill="none" stroke="#666666" stroke-width="2" stroke-miterlimit="10" x1="1680.392" y1="113.184" x2="1694.392" y2="113.184"/>
					
						<line fill="none" stroke="#666666" stroke-width="2" stroke-miterlimit="10" x1="1676.392" y1="105.184" x2="1678.392" y2="105.184"/>
					
						<line fill="none" stroke="#666666" stroke-width="2" stroke-miterlimit="10" x1="1676.392" y1="109.184" x2="1678.392" y2="109.184"/>
					
						<line fill="none" stroke="#666666" stroke-width="2" stroke-miterlimit="10" x1="1676.392" y1="113.184" x2="1678.392" y2="113.184"/>
				</g>
			</g>
			<text transform="matrix(1 0 0 1 1451.1113 113.3105)" fill="#666666" font-family="'HelveticaNeue'" font-size="14">100%</text>
			<path fill="#ADADAD" d="M1440.359,106.827c-2.465-2.206-5.63-3.422-8.916-3.422c-3.283,0-6.449,1.216-8.914,3.422l-1.301-1.452
				c2.823-2.528,6.45-3.92,10.215-3.92c3.766,0,7.395,1.392,10.217,3.92L1440.359,106.827z"/>
			<path fill="#666666" d="M1425.674,110.008l-1.264-1.485c1.965-1.672,4.461-2.593,7.033-2.593c2.573,0,5.071,0.921,7.032,2.594
				l-1.265,1.483C1433.994,107.265,1428.9,107.263,1425.674,110.008"/>
			<path fill="#666666" d="M1435.185,111.925c-1.04-0.801-2.327-1.297-3.741-1.297s-2.701,0.496-3.741,1.297l3.741,3.741
				L1435.185,111.925z"/>
			<path fill="#666666" d="M1510.392,112.684c0,0.828-0.672,1.5-1.5,1.5h-17c-0.828,0-1.5-0.672-1.5-1.5v-9
				c0-0.828,0.672-1.5,1.5-1.5h17c0.828,0,1.5,0.672,1.5,1.5V112.684z M1509.392,103.684c0-0.276-0.225-0.5-0.5-0.5h-17
				c-0.275,0-0.5,0.224-0.5,0.5v9c0,0.276,0.225,0.5,0.5,0.5h17c0.275,0,0.5-0.224,0.5-0.5V103.684z"/>
			<rect x="1492.392" y="104.184" fill="#666666" width="16" height="8"/>
			<path fill="#666666" d="M1513.892,111.184h-2.5v-6h2.5c0.552,0,0.5,0.448,0.5,1v4
				C1514.392,110.735,1514.444,111.184,1513.892,111.184"/>
			<path fill="none" stroke="#666666" stroke-miterlimit="10" d="M1537.392,112.671c1-0.798,2.148-2.211,2.148-3.835
				s-1.148-3.037-2.148-3.835"/>
			<path fill="none" stroke="#666666" stroke-miterlimit="10" d="M1540.392,114.698c1-1.494,2.454-3.567,2.454-5.862
				c0-2.295-1.454-4.369-2.454-5.863"/>
			<path fill="none" stroke="#666666" stroke-linecap="round" stroke-linejoin="round" stroke-miterlimit="10" d="M1533.892,102.629
				l-4,3v0.054h-0.864c-1.104,0-2.136,0.903-2.136,2.008v2.136c0,1.104,1.031,1.856,2.136,1.856h2.035l2.829,3.015V102.629z"/>
		</g>
	</g>
</g>
</svg>
